<?xml version="1.0" standalone="no"?>
<!DOCTYPE svg PUBLIC "-//W3C//DTD SVG 20010904//EN"
 "http://www.w3.org/TR/2001/REC-SVG-20010904/DTD/svg10.dtd">
<svg version="1.0" xmlns="http://www.w3.org/2000/svg"
 width="255.000000pt" height="302.000000pt" viewBox="0 0 255.000000 302.000000"
 preserveAspectRatio="xMidYMid meet">
<metadata>
Created by potrace 1.16, written by Peter Selinger 2001-2019
</metadata>
<g transform="translate(0.000000,302.000000) scale(0.100000,-0.100000)"
fill="#000000" stroke="none">
<path d="M901 2910 c-68 -15 -127 -48 -170 -96 -38 -43 -131 -217 -198 -370
-24 -53 -54 -95 -121 -168 -226 -246 -324 -448 -324 -671 0 -120 23 -202 80
-291 59 -91 144 -147 299 -198 45 -15 98 -38 118 -52 20 -13 37 -24 39 -24 1
0 -13 32 -32 72 -37 78 -74 210 -99 358 -46 268 -1 732 84 880 65 111 162 249
208 295 147 149 306 139 459 -26 125 -136 145 -229 77 -361 -91 -172 -101
-197 -107 -255 -15 -144 78 -297 271 -445 125 -97 175 -146 175 -172 0 -44
-280 -166 -380 -166 -21 0 -41 -4 -44 -9 -7 -11 22 -37 58 -51 l29 -11 -26
-27 c-45 -47 -31 -72 28 -48 l35 15 0 -34 c0 -19 4 -36 9 -39 10 -6 40 26 70
75 12 21 31 43 44 51 34 22 129 59 136 53 9 -10 -46 -109 -107 -192 -74 -100
-88 -125 -96 -186 -9 -57 11 -132 59 -227 43 -86 50 -117 28 -124 -28 -9 -53
-63 -53 -114 0 -58 15 -86 31 -59 8 14 14 16 25 6 13 -10 13 -14 0 -28 -26
-28 -38 -74 -31 -119 7 -44 20 -53 39 -26 11 14 16 13 51 -7 l38 -23 -5 27
c-6 30 -4 31 22 17 28 -15 32 2 15 52 -14 44 -14 44 26 120 34 67 47 81 93
107 142 82 222 187 272 360 10 34 19 116 23 217 3 90 9 166 13 170 4 3 31 -14
59 -40 59 -53 155 -109 213 -125 30 -8 47 -7 75 5 50 21 69 54 31 54 -17 0
-18 4 -10 25 12 32 -1 39 -44 24 -30 -11 -38 -10 -69 10 -41 25 -125 114 -207
218 l-57 72 24 138 c22 125 23 150 15 273 l-10 135 24 18 c33 25 78 94 93 140
11 34 10 44 -15 108 -29 75 -81 133 -130 145 -14 4 -44 1 -65 -5 -35 -10 -43
-10 -67 7 -15 11 -72 38 -126 61 -149 62 -175 81 -281 201 -184 211 -301 281
-480 286 -49 2 -110 -1 -134 -6z m291 -59 c85 -33 162 -96 289 -236 123 -135
123 -135 369 -247 l75 -35 -3 -51 c-5 -64 11 -112 49 -153 16 -17 29 -33 29
-35 0 -2 -19 -4 -42 -5 -42 -1 -42 -1 -13 -10 51 -16 128 0 184 36 47 31 51
32 51 14 0 -11 -5 -30 -11 -42 -16 -31 -81 -97 -95 -97 -17 0 -84 -77 -84 -97
0 -13 8 -9 34 16 l33 32 7 -124 c4 -68 4 -142 1 -163 -4 -22 -16 -87 -26 -145
l-20 -107 60 -80 c64 -85 204 -216 249 -233 15 -6 40 -8 56 -5 l30 6 -24 -25
-23 -25 34 0 c26 0 30 -3 19 -10 -27 -18 -81 -10 -144 20 -65 31 -183 126
-202 162 -12 21 -13 21 -29 -17 -13 -30 -19 -85 -25 -210 -7 -149 -11 -179
-34 -240 -33 -85 -67 -145 -113 -196 -33 -37 -118 -99 -135 -99 -13 0 -9 58 5
63 7 3 5 6 -6 6 -9 1 -27 16 -38 34 -12 17 -18 23 -14 12 4 -11 10 -41 12 -66
5 -41 -1 -58 -47 -150 -42 -82 -51 -109 -47 -136 5 -28 3 -33 -11 -31 -12 2
-17 -4 -16 -19 1 -27 -8 -29 -27 -7 -7 8 -21 13 -31 11 -30 -8 -23 49 12 93
44 55 52 83 40 138 -17 77 -40 142 -82 231 -38 79 -40 89 -36 161 3 83 2 81
114 242 44 63 94 169 94 198 0 18 -32 10 -114 -28 -71 -34 -86 -46 -120 -95
-22 -31 -41 -57 -44 -57 -2 0 -1 11 2 25 10 39 -1 47 -41 30 -50 -21 -51 -19
-14 19 35 36 34 40 -16 51 -40 8 -43 25 -5 25 61 0 217 58 313 116 47 28 58
40 61 66 5 28 -2 39 -46 86 -28 30 -80 77 -116 104 -157 119 -258 254 -275
369 -12 83 22 180 113 324 60 94 54 185 -20 294 -86 128 -203 210 -316 219
-57 4 -69 2 -135 -31 -99 -50 -160 -115 -260 -282 -61 -101 -90 -141 -106
-143 -30 -5 -27 18 12 80 19 29 57 100 87 158 103 204 164 280 247 307 23 8
83 11 153 10 92 -2 127 -7 172 -26z m890 -526 c23 -15 47 -45 64 -80 l27 -56
-28 -29 c-43 -45 -88 -56 -127 -33 -43 25 -68 71 -75 136 -4 42 -2 57 12 70
25 25 84 22 127 -8z m-1579 -31 c21 -8 21 -10 -16 -135 -75 -252 -58 -677 37
-959 14 -41 24 -75 22 -77 -9 -9 -195 65 -245 97 -134 87 -198 244 -179 439
16 166 74 296 219 486 50 66 98 130 107 142 10 12 22 20 27 18 6 -3 18 -8 28
-11z"/>
<path d="M1462 2185 c-85 -37 -142 -113 -142 -188 0 -86 67 -166 145 -175 75
-8 161 23 217 79 67 67 76 144 25 220 -45 69 -163 99 -245 64z m177 -34 c42
-29 64 -67 69 -119 4 -47 2 -52 -38 -96 -72 -78 -188 -106 -255 -62 -32 21
-65 86 -65 128 1 76 62 152 134 168 48 10 128 0 155 -19z"/>
<path d="M1493 2098 c-25 -12 -53 -65 -53 -101 0 -33 52 -77 91 -77 40 0 88
46 95 91 5 28 1 41 -21 67 -29 34 -68 41 -112 20z"/>
</g>
</svg>
